<svg xmlns="http://www.w3.org/2000/svg" width="46.28571428571428" height="56.57142857142857" viewBox="0 -56.57142857142857 46.28571428571428 56.57142857142857"><path d="M12.86-38.57L12.86-30.86L33.43-30.86L33.43-38.57L33.43-38.57Q33.43-42.83 30.42-45.84L30.42-45.84L30.42-45.84Q27.40-48.86 23.14-48.86L23.14-48.86L23.14-48.86Q18.88-48.86 15.87-45.84L15.87-45.84L15.87-45.84Q12.86-42.83 12.86-38.57L12.86-38.57ZM46.29-27.00L46.29-27.00L46.29-3.86L46.29-3.86Q46.29-2.25 45.16-1.13L45.16-1.13L45.16-1.13Q44.04 0 42.43 0L42.43 0L3.86 0L3.86 0Q2.25 0 1.13-1.13L1.13-1.13L1.13-1.13Q0-2.25 0-3.86L0-3.86L0-27.00L0-27.00Q0-28.61 1.13-29.73L1.13-29.73L1.13-29.73Q2.25-30.86 3.86-30.86L3.86-30.86L5.14-30.86L5.14-38.57L5.14-38.57Q5.14-45.96 10.45-51.27L10.45-51.27L10.45-51.27Q15.75-56.57 23.14-56.57L23.14-56.57L23.14-56.57Q30.54-56.57 35.84-51.27L35.84-51.27L35.84-51.27Q41.14-45.96 41.14-38.57L41.14-38.57L41.14-30.86L42.43-30.86L42.43-30.86Q44.04-30.86 45.16-29.73L45.16-29.73L45.16-29.73Q46.29-28.61 46.29-27.00Z"/></svg>